<svg xmlns="http://www.w3.org/2000/svg" viewBox="0 0 100 100" width="100" height="100">
  <defs>
    <linearGradient id="wishVaultGrad" x1="0%" y1="0%" x2="100%" y2="100%">
      <stop offset="0%" stop-color="#8e7667" />
      <stop offset="100%" stop-color="#655246" />
    </linearGradient>
  </defs>
  <!-- Elegant Muted Brown Wishlist Bag -->
  <path d="M30,35 L70,35 L74,85 L26,85 Z" fill="url(#wishVaultGrad)" rx="6" />
  <path d="M40,35 C40,20 60,20 60,35" fill="none" stroke="#655246" stroke-width="6" stroke-linecap="round" />
  <!-- Heart Icon on the Bag -->
  <path d="M50,62 C50,62 43,55 43,51 C43,47.5 45.8,45 49,45 C50.5,45 51.5,46 52,46.5 C52.5,46 53.5,45 55,45 C58.2,45 61,47.5 61,51 C61,55 54,62 50,62 Z" fill="#ffffff" opacity="0.95" />
</svg>
